<svg t="1735306771660" class="icon" viewBox="0 0 1024 1024" version="1.1" xmlns="http://www.w3.org/2000/svg" p-id="4261" width="1em" height="1em"><path d="M922.666667 876.373333 702.677333 648.405333C805.290667 511.701333 796.245333 314.133333 675.008 188.501333 609.344 120.448 523.264 86.421333 437.205333 86.421333 351.146667 86.421333 265.066667 120.448 199.402667 188.501333 68.074667 324.608 68.074667 545.258667 199.402667 681.344 265.066667 749.397333 351.146667 783.424 437.205333 783.424 510.058667 783.424 582.762667 758.762667 643.221333 710.016L863.210667 937.984 922.666667 876.373333ZM258.858667 619.733333C160.512 517.824 160.512 352.021333 258.858667 250.112 306.496 200.746667 369.834667 173.546667 437.205333 173.546667 504.576 173.546667 567.914667 200.746667 615.552 250.112 713.898667 352.021333 713.898667 517.824 615.552 619.733333 567.914667 669.098667 504.576 696.298667 437.205333 696.298667 369.834667 696.298667 306.496 669.098667 258.858667 619.733333Z" p-id="4262"></path></svg>